<?xml version="1.0" encoding="utf-8"?>
<svg id="master-artboard" viewBox="0 0 1400 980" version="1.1" xmlns="http://www.w3.org/2000/svg" x="0px" y="0px" style="enable-background:new 0 0 336 235.2;" width="1400px" height="980px" xmlns:xlink="http://www.w3.org/1999/xlink"><defs><linearGradient id="linear-gradient" x1="361.42" y1="74.56" x2="302.83" y2="171.71" gradientUnits="userSpaceOnUse"><stop offset="0" stop-color="#ffe30b"/><stop offset="1" stop-color="#ff712f"/></linearGradient><linearGradient id="linear-gradient-2" x1="287.05" y1="112.78" x2="351.56" y2="175.81" gradientTransform="translate(459.57 -175.38) rotate(89.84)" xlink:href="#linear-gradient"/><linearGradient id="linear-gradient-3" x1="361.42" y1="63.44" x2="302.83" y2="160.58" xlink:href="#linear-gradient"/><linearGradient id="linear-gradient-4" x1="287.05" y1="101.66" x2="351.56" y2="164.69" gradientTransform="translate(448.44 -186.47) rotate(89.84)" xlink:href="#linear-gradient"/><linearGradient id="linear-gradient-5" x1="361.42" y1="52.31" x2="302.83" y2="149.46" xlink:href="#linear-gradient"/><linearGradient id="linear-gradient-6" x1="296.19" y1="102.16" x2="371.09" y2="165.94" gradientTransform="translate(437.32 -197.56) rotate(89.84)" xlink:href="#linear-gradient"/><linearGradient id="linear-gradient-7" x1="407.19" y1="86.58" x2="348.61" y2="183.72" xlink:href="#linear-gradient"/><linearGradient id="linear-gradient-8" x1="332.82" y1="124.79" x2="397.34" y2="187.83" xlink:href="#linear-gradient"/><linearGradient id="linear-gradient-9" x1="407.19" y1="75.45" x2="348.61" y2="172.6" xlink:href="#linear-gradient"/><linearGradient id="linear-gradient-10" x1="332.82" y1="113.67" x2="397.34" y2="176.7" xlink:href="#linear-gradient"/><linearGradient id="linear-gradient-11" x1="407.19" y1="64.33" x2="348.61" y2="161.47" xlink:href="#linear-gradient"/><linearGradient id="linear-gradient-12" x1="329.31" y1="101.07" x2="412.36" y2="177.45" gradientTransform="translate(494.98 -231.36) rotate(89.84)" xlink:href="#linear-gradient"/><linearGradient id="linear-gradient-13" x1="223.68" y1="125.3" x2="240.22" y2="296.41" gradientUnits="userSpaceOnUse"><stop offset="0" stop-color="#0763bd"/><stop offset="1" stop-color="#172a7c"/></linearGradient><linearGradient id="linear-gradient-14" x1="157.95" y1="173.32" x2="326.09" y2="324.47" gradientUnits="userSpaceOnUse"><stop offset="0.04" stop-color="#e3ebff"/><stop offset="1" stop-color="#978ef0"/></linearGradient><linearGradient id="linear-gradient-15" x1="177.23" y1="188.43" x2="258.55" y2="263.25" xlink:href="#linear-gradient-14"/><linearGradient id="linear-gradient-16" x1="60.4" y1="164.68" x2="186.31" y2="164.68" xlink:href="#linear-gradient-14"/><linearGradient id="linear-gradient-17" x1="101.11" y1="197.87" x2="195.68" y2="197.87" xlink:href="#linear-gradient-14"/><linearGradient id="linear-gradient-18" x1="102.37" y1="161.82" x2="171.12" y2="230.57" xlink:href="#linear-gradient-13"/><linearGradient id="linear-gradient-19" x1="126.24" y1="137.95" x2="194.99" y2="206.7" xlink:href="#linear-gradient-13"/><linearGradient id="linear-gradient-20" x1="51.36" y1="157.29" x2="128.97" y2="234.91" xlink:href="#linear-gradient-14"/><linearGradient id="linear-gradient-21" x1="61.27" y1="-21.9" x2="84.59" y2="1.42" gradientTransform="matrix(0.87, -0.5, 0, 1.15, 75.47, 253.69)" xlink:href="#linear-gradient"/><linearGradient id="linear-gradient-22" x1="65.23" y1="-26.56" x2="88.94" y2="-2.86" gradientTransform="matrix(0.87, -0.5, 0, 1.15, 75.47, 253.69)" xlink:href="#linear-gradient"/><linearGradient id="linear-gradient-23" x1="69.57" y1="-30.77" x2="92.9" y2="-7.44" gradientTransform="matrix(0.87, -0.5, 0, 1.15, 75.47, 253.69)" xlink:href="#linear-gradient"/><linearGradient id="linear-gradient-24" x1="70.55" y1="-36.12" x2="96.26" y2="-10.41" gradientTransform="matrix(0.87, -0.5, 0, 1.15, 75.47, 253.69)" xlink:href="#linear-gradient"/><linearGradient id="linear-gradient-25" x1="60" y1="-17.21" x2="83.87" y2="6.66" gradientTransform="matrix(0.87, -0.5, 0, 1.15, 75.47, 253.69)" xlink:href="#linear-gradient"/><linearGradient id="linear-gradient-26" x1="65.34" y1="-22.31" x2="88.44" y2="0.78" gradientTransform="matrix(0.87, -0.5, 0, 1.15, 75.47, 253.69)" xlink:href="#linear-gradient"/><linearGradient id="linear-gradient-27" x1="70.94" y1="-28.72" x2="94.37" y2="-5.29" gradientTransform="matrix(0.87, -0.5, 0, 1.15, 75.47, 253.69)" xlink:href="#linear-gradient"/><linearGradient id="linear-gradient-28" x1="64.2" y1="-19.15" x2="88.9" y2="5.55" gradientTransform="matrix(0.87, -0.5, 0, 1.15, 75.47, 253.69)" xlink:href="#linear-gradient"/><linearGradient id="linear-gradient-29" x1="69.67" y1="-23.15" x2="92.75" y2="-0.06" gradientTransform="matrix(0.87, -0.5, 0, 1.15, 75.47, 253.69)" xlink:href="#linear-gradient"/><linearGradient id="linear-gradient-30" x1="61.41" y1="-14.66" x2="84.69" y2="8.62" gradientTransform="matrix(0.87, -0.5, 0, 1.15, 75.47, 253.69)" xlink:href="#linear-gradient"/><linearGradient id="linear-gradient-31" x1="64.51" y1="-13.91" x2="87.43" y2="9.01" gradientTransform="matrix(0.87, -0.5, 0, 1.15, 75.47, 253.69)" xlink:href="#linear-gradient"/><linearGradient id="linear-gradient-32" x1="71.24" y1="-22.14" x2="94.93" y2="1.56" gradientTransform="matrix(0.87, -0.5, 0, 1.15, 75.47, 253.69)" xlink:href="#linear-gradient"/><linearGradient id="linear-gradient-33" x1="101.45" y1="-34.61" x2="104.82" y2="-32.06" gradientTransform="matrix(0.87, -0.5, 0, 1.15, 80.31, 273.56)" xlink:href="#linear-gradient"/><linearGradient id="linear-gradient-34" x1="105.65" y1="-34.61" x2="109.02" y2="-32.06" gradientTransform="matrix(0.87, -0.5, 0, 1.15, 80.31, 273.56)" xlink:href="#linear-gradient"/><linearGradient id="linear-gradient-35" x1="109.85" y1="-34.61" x2="113.22" y2="-32.06" gradientTransform="matrix(0.87, -0.5, 0, 1.15, 80.31, 273.56)" xlink:href="#linear-gradient"/><linearGradient id="linear-gradient-36" x1="114.05" y1="-34.61" x2="117.42" y2="-32.06" gradientTransform="matrix(0.87, -0.5, 0, 1.15, 80.31, 273.56)" xlink:href="#linear-gradient"/><linearGradient id="linear-gradient-37" x1="101.45" y1="-31.18" x2="104.82" y2="-28.64" gradientTransform="matrix(0.87, -0.5, 0, 1.15, 80.31, 273.56)" xlink:href="#linear-gradient"/><linearGradient id="linear-gradient-38" x1="105.65" y1="-31.18" x2="109.02" y2="-28.64" gradientTransform="matrix(0.87, -0.5, 0, 1.15, 80.31, 273.56)" xlink:href="#linear-gradient"/><linearGradient id="linear-gradient-39" x1="109.85" y1="-31.18" x2="113.22" y2="-28.64" gradientTransform="matrix(0.87, -0.5, 0, 1.15, 80.31, 273.56)" xlink:href="#linear-gradient"/><linearGradient id="linear-gradient-40" x1="114.05" y1="-31.18" x2="117.42" y2="-28.64" gradientTransform="matrix(0.87, -0.5, 0, 1.15, 80.31, 273.56)" xlink:href="#linear-gradient"/><linearGradient id="linear-gradient-41" x1="101.45" y1="-27.75" x2="104.82" y2="-25.21" gradientTransform="matrix(0.87, -0.5, 0, 1.15, 80.31, 273.56)" xlink:href="#linear-gradient"/><linearGradient id="linear-gradient-42" x1="105.65" y1="-27.75" x2="109.02" y2="-25.21" gradientTransform="matrix(0.87, -0.5, 0, 1.15, 80.31, 273.56)" xlink:href="#linear-gradient"/><linearGradient id="linear-gradient-43" x1="109.85" y1="-27.75" x2="113.22" y2="-25.21" gradientTransform="matrix(0.87, -0.5, 0, 1.15, 80.31, 273.56)" xlink:href="#linear-gradient"/><linearGradient id="linear-gradient-44" x1="114.05" y1="-27.75" x2="117.42" y2="-25.21" gradientTransform="matrix(0.87, -0.5, 0, 1.15, 80.31, 273.56)" xlink:href="#linear-gradient"/><linearGradient id="linear-gradient-45" x1="101.45" y1="-24.33" x2="104.82" y2="-21.79" gradientTransform="matrix(0.87, -0.5, 0, 1.15, 80.31, 273.56)" xlink:href="#linear-gradient"/><linearGradient id="linear-gradient-46" x1="105.65" y1="-24.33" x2="109.02" y2="-21.79" gradientTransform="matrix(0.87, -0.5, 0, 1.15, 80.31, 273.56)" xlink:href="#linear-gradient"/><linearGradient id="linear-gradient-47" x1="109.85" y1="-24.33" x2="113.22" y2="-21.79" gradientTransform="matrix(0.87, -0.5, 0, 1.15, 80.31, 273.56)" xlink:href="#linear-gradient"/><linearGradient id="linear-gradient-48" x1="114.05" y1="-24.33" x2="117.42" y2="-21.79" gradientTransform="matrix(0.87, -0.5, 0, 1.15, 80.31, 273.56)" xlink:href="#linear-gradient"/><linearGradient id="linear-gradient-49" x1="68.72" y1="139.24" x2="177.99" y2="139.24" xlink:href="#linear-gradient-13"/><linearGradient id="linear-gradient-50" x1="104.05" y1="168.04" x2="186.11" y2="168.04" xlink:href="#linear-gradient-13"/><linearGradient id="linear-gradient-51" x1="60.87" y1="132.82" x2="128.23" y2="200.18" xlink:href="#linear-gradient-13"/><linearGradient id="linear-gradient-52" x1="60.4" y1="125.41" x2="186.31" y2="125.41" xlink:href="#linear-gradient-14"/><linearGradient id="linear-gradient-53" x1="101.11" y1="158.59" x2="195.68" y2="158.59" xlink:href="#linear-gradient-14"/><linearGradient id="linear-gradient-54" x1="102.37" y1="122.55" x2="171.12" y2="191.3" xlink:href="#linear-gradient-13"/><linearGradient id="linear-gradient-55" x1="126.24" y1="98.68" x2="194.99" y2="167.43" xlink:href="#linear-gradient-13"/><linearGradient id="linear-gradient-56" x1="51.36" y1="118.02" x2="128.97" y2="195.63" xlink:href="#linear-gradient-14"/><linearGradient id="linear-gradient-57" x1="61.27" y1="-55.91" x2="84.59" y2="-32.59" gradientTransform="matrix(0.87, -0.5, 0, 1.15, 75.47, 253.69)" xlink:href="#linear-gradient"/><linearGradient id="linear-gradient-58" x1="65.23" y1="-60.58" x2="88.94" y2="-36.87" gradientTransform="matrix(0.87, -0.5, 0, 1.15, 75.47, 253.69)" xlink:href="#linear-gradient"/><linearGradient id="linear-gradient-59" x1="69.57" y1="-64.78" x2="92.9" y2="-41.46" gradientTransform="matrix(0.87, -0.5, 0, 1.15, 75.47, 253.69)" xlink:href="#linear-gradient"/><linearGradient id="linear-gradient-60" x1="70.55" y1="-70.13" x2="96.26" y2="-44.42" gradientTransform="matrix(0.87, -0.5, 0, 1.15, 75.47, 253.69)" xlink:href="#linear-gradient"/><linearGradient id="linear-gradient-61" x1="60" y1="-51.22" x2="83.87" y2="-27.35" gradientTransform="matrix(0.87, -0.5, 0, 1.15, 75.47, 253.69)" xlink:href="#linear-gradient"/><linearGradient id="linear-gradient-62" x1="65.34" y1="-56.33" x2="88.44" y2="-33.23" gradientTransform="matrix(0.87, -0.5, 0, 1.15, 75.47, 253.69)" xlink:href="#linear-gradient"/><linearGradient id="linear-gradient-63" x1="70.94" y1="-62.74" x2="94.37" y2="-39.31" gradientTransform="matrix(0.87, -0.5, 0, 1.15, 75.47, 253.69)" xlink:href="#linear-gradient"/><linearGradient id="linear-gradient-64" x1="64.2" y1="-53.17" x2="88.9" y2="-28.47" gradientTransform="matrix(0.87, -0.5, 0, 1.15, 75.47, 253.69)" xlink:href="#linear-gradient"/><linearGradient id="linear-gradient-65" x1="69.67" y1="-57.16" x2="92.75" y2="-34.08" gradientTransform="matrix(0.87, -0.5, 0, 1.15, 75.47, 253.69)" xlink:href="#linear-gradient"/><linearGradient id="linear-gradient-66" x1="61.41" y1="-48.68" x2="84.69" y2="-25.4" gradientTransform="matrix(0.87, -0.5, 0, 1.15, 75.47, 253.69)" xlink:href="#linear-gradient"/><linearGradient id="linear-gradient-67" x1="64.51" y1="-47.93" x2="87.43" y2="-25.01" gradientTransform="matrix(0.87, -0.5, 0, 1.15, 75.47, 253.69)" xlink:href="#linear-gradient"/><linearGradient id="linear-gradient-68" x1="71.24" y1="-56.15" x2="94.93" y2="-32.46" gradientTransform="matrix(0.87, -0.5, 0, 1.15, 75.47, 253.69)" xlink:href="#linear-gradient"/><linearGradient id="linear-gradient-69" x1="101.45" y1="-68.62" x2="104.82" y2="-66.08" gradientTransform="matrix(0.87, -0.5, 0, 1.15, 80.31, 273.56)" xlink:href="#linear-gradient"/><linearGradient id="linear-gradient-70" x1="105.65" y1="-68.62" x2="109.02" y2="-66.08" gradientTransform="matrix(0.87, -0.5, 0, 1.15, 80.31, 273.56)" xlink:href="#linear-gradient"/><linearGradient id="linear-gradient-71" x1="109.85" y1="-68.62" x2="113.22" y2="-66.08" gradientTransform="matrix(0.87, -0.5, 0, 1.15, 80.31, 273.56)" xlink:href="#linear-gradient"/><linearGradient id="linear-gradient-72" x1="114.05" y1="-68.62" x2="117.42" y2="-66.08" gradientTransform="matrix(0.87, -0.5, 0, 1.15, 80.31, 273.56)" xlink:href="#linear-gradient"/><linearGradient id="linear-gradient-73" x1="101.45" y1="-65.19" x2="104.82" y2="-62.65" gradientTransform="matrix(0.87, -0.5, 0, 1.15, 80.31, 273.56)" xlink:href="#linear-gradient"/><linearGradient id="linear-gradient-74" x1="105.65" y1="-65.19" x2="109.02" y2="-62.65" gradientTransform="matrix(0.87, -0.5, 0, 1.15, 80.31, 273.56)" xlink:href="#linear-gradient"/><linearGradient id="linear-gradient-75" x1="109.85" y1="-65.19" x2="113.22" y2="-62.65" gradientTransform="matrix(0.87, -0.5, 0, 1.15, 80.31, 273.56)" xlink:href="#linear-gradient"/><linearGradient id="linear-gradient-76" x1="114.05" y1="-65.19" x2="117.42" y2="-62.65" gradientTransform="matrix(0.87, -0.5, 0, 1.15, 80.31, 273.56)" xlink:href="#linear-gradient"/><linearGradient id="linear-gradient-77" x1="101.45" y1="-61.77" x2="104.82" y2="-59.23" gradientTransform="matrix(0.87, -0.5, 0, 1.15, 80.31, 273.56)" xlink:href="#linear-gradient"/><linearGradient id="linear-gradient-78" x1="105.65" y1="-61.77" x2="109.02" y2="-59.23" gradientTransform="matrix(0.87, -0.5, 0, 1.15, 80.31, 273.56)" xlink:href="#linear-gradient"/><linearGradient id="linear-gradient-79" x1="109.85" y1="-61.77" x2="113.22" y2="-59.23" gradientTransform="matrix(0.87, -0.5, 0, 1.15, 80.31, 273.56)" xlink:href="#linear-gradient"/><linearGradient id="linear-gradient-80" x1="114.05" y1="-61.77" x2="117.42" y2="-59.23" gradientTransform="matrix(0.87, -0.5, 0, 1.15, 80.31, 273.56)" xlink:href="#linear-gradient"/><linearGradient id="linear-gradient-81" x1="101.45" y1="-58.34" x2="104.82" y2="-55.8" gradientTransform="matrix(0.87, -0.5, 0, 1.15, 80.31, 273.56)" xlink:href="#linear-gradient"/><linearGradient id="linear-gradient-82" x1="105.65" y1="-58.34" x2="109.02" y2="-55.8" gradientTransform="matrix(0.87, -0.5, 0, 1.15, 80.31, 273.56)" xlink:href="#linear-gradient"/><linearGradient id="linear-gradient-83" x1="109.85" y1="-58.34" x2="113.22" y2="-55.8" gradientTransform="matrix(0.87, -0.5, 0, 1.15, 80.31, 273.56)" xlink:href="#linear-gradient"/><linearGradient id="linear-gradient-84" x1="114.05" y1="-58.34" x2="117.42" y2="-55.8" gradientTransform="matrix(0.87, -0.5, 0, 1.15, 80.31, 273.56)" xlink:href="#linear-gradient"/><linearGradient id="linear-gradient-85" x1="68.72" y1="99.96" x2="177.99" y2="99.96" xlink:href="#linear-gradient-13"/><linearGradient id="linear-gradient-86" x1="104.05" y1="128.76" x2="186.11" y2="128.76" xlink:href="#linear-gradient-13"/><linearGradient id="linear-gradient-87" x1="60.87" y1="93.55" x2="128.23" y2="160.9" xlink:href="#linear-gradient-13"/><linearGradient id="linear-gradient-88" x1="53.05" y1="63.52" x2="216.79" y2="116.18" xlink:href="#linear-gradient-14"/><linearGradient id="linear-gradient-89" x1="101.11" y1="119.32" x2="195.68" y2="119.32" xlink:href="#linear-gradient-14"/><linearGradient id="linear-gradient-90" x1="102.37" y1="83.27" x2="171.12" y2="152.02" xlink:href="#linear-gradient-13"/><linearGradient id="linear-gradient-91" x1="126.24" y1="59.4" x2="194.99" y2="128.15" xlink:href="#linear-gradient-13"/><linearGradient id="linear-gradient-92" x1="51.36" y1="78.74" x2="128.97" y2="156.35" xlink:href="#linear-gradient-14"/><linearGradient id="linear-gradient-93" x1="61.27" y1="-89.92" x2="84.59" y2="-66.61" gradientTransform="matrix(0.87, -0.5, 0, 1.15, 75.47, 253.69)" xlink:href="#linear-gradient"/><linearGradient id="linear-gradient-94" x1="65.23" y1="-94.59" x2="88.94" y2="-70.89" gradientTransform="matrix(0.87, -0.5, 0, 1.15, 75.47, 253.69)" xlink:href="#linear-gradient"/><linearGradient id="linear-gradient-95" x1="69.57" y1="-98.8" x2="92.9" y2="-75.47" gradientTransform="matrix(0.87, -0.5, 0, 1.15, 75.47, 253.69)" xlink:href="#linear-gradient"/><linearGradient id="linear-gradient-96" x1="70.55" y1="-104.15" x2="96.26" y2="-78.44" gradientTransform="matrix(0.87, -0.5, 0, 1.15, 75.47, 253.69)" xlink:href="#linear-gradient"/><linearGradient id="linear-gradient-97" x1="60" y1="-85.24" x2="83.87" y2="-61.36" gradientTransform="matrix(0.87, -0.5, 0, 1.15, 75.47, 253.69)" xlink:href="#linear-gradient"/><linearGradient id="linear-gradient-98" x1="65.34" y1="-90.34" x2="88.44" y2="-67.25" gradientTransform="matrix(0.87, -0.5, 0, 1.15, 75.47, 253.69)" xlink:href="#linear-gradient"/><linearGradient id="linear-gradient-99" x1="70.94" y1="-96.75" x2="94.37" y2="-73.32" gradientTransform="matrix(0.87, -0.5, 0, 1.15, 75.47, 253.69)" xlink:href="#linear-gradient"/><linearGradient id="linear-gradient-100" x1="64.2" y1="-87.18" x2="88.9" y2="-62.48" gradientTransform="matrix(0.87, -0.5, 0, 1.15, 75.47, 253.69)" xlink:href="#linear-gradient"/><linearGradient id="linear-gradient-101" x1="69.67" y1="-91.18" x2="92.75" y2="-68.09" gradientTransform="matrix(0.87, -0.5, 0, 1.15, 75.47, 253.69)" xlink:href="#linear-gradient"/><linearGradient id="linear-gradient-102" x1="61.41" y1="-82.69" x2="84.69" y2="-59.41" gradientTransform="matrix(0.87, -0.5, 0, 1.15, 75.47, 253.69)" xlink:href="#linear-gradient"/><linearGradient id="linear-gradient-103" x1="64.51" y1="-81.94" x2="87.43" y2="-59.02" gradientTransform="matrix(0.87, -0.5, 0, 1.15, 75.47, 253.69)" xlink:href="#linear-gradient"/><linearGradient id="linear-gradient-104" x1="71.24" y1="-90.17" x2="94.93" y2="-66.47" gradientTransform="matrix(0.87, -0.5, 0, 1.15, 75.47, 253.69)" xlink:href="#linear-gradient"/><linearGradient id="linear-gradient-105" x1="101.45" y1="-102.63" x2="104.82" y2="-100.09" gradientTransform="matrix(0.87, -0.5, 0, 1.15, 80.31, 273.56)" xlink:href="#linear-gradient"/><linearGradient id="linear-gradient-106" x1="105.65" y1="-102.63" x2="109.02" y2="-100.09" gradientTransform="matrix(0.87, -0.5, 0, 1.15, 80.31, 273.56)" xlink:href="#linear-gradient"/><linearGradient id="linear-gradient-107" x1="109.85" y1="-102.63" x2="113.22" y2="-100.09" gradientTransform="matrix(0.87, -0.5, 0, 1.15, 80.31, 273.56)" xlink:href="#linear-gradient"/><linearGradient id="linear-gradient-108" x1="114.05" y1="-102.63" x2="117.42" y2="-100.09" gradientTransform="matrix(0.87, -0.5, 0, 1.15, 80.31, 273.56)" xlink:href="#linear-gradient"/><linearGradient id="linear-gradient-109" x1="101.45" y1="-99.21" x2="104.82" y2="-96.67" gradientTransform="matrix(0.87, -0.5, 0, 1.15, 80.31, 273.56)" xlink:href="#linear-gradient"/><linearGradient id="linear-gradient-110" x1="105.65" y1="-99.21" x2="109.02" y2="-96.67" gradientTransform="matrix(0.87, -0.5, 0, 1.15, 80.31, 273.56)" xlink:href="#linear-gradient"/><linearGradient id="linear-gradient-111" x1="109.85" y1="-99.21" x2="113.22" y2="-96.67" gradientTransform="matrix(0.87, -0.5, 0, 1.15, 80.31, 273.56)" xlink:href="#linear-gradient"/><linearGradient id="linear-gradient-112" x1="114.05" y1="-99.21" x2="117.42" y2="-96.66" gradientTransform="matrix(0.87, -0.5, 0, 1.15, 80.31, 273.56)" xlink:href="#linear-gradient"/><linearGradient id="linear-gradient-113" x1="101.45" y1="-95.78" x2="104.82" y2="-93.24" gradientTransform="matrix(0.87, -0.5, 0, 1.15, 80.31, 273.56)" xlink:href="#linear-gradient"/><linearGradient id="linear-gradient-114" x1="105.65" y1="-95.78" x2="109.02" y2="-93.24" gradientTransform="matrix(0.87, -0.5, 0, 1.15, 80.31, 273.56)" xlink:href="#linear-gradient"/><linearGradient id="linear-gradient-115" x1="109.85" y1="-95.78" x2="113.22" y2="-93.24" gradientTransform="matrix(0.87, -0.5, 0, 1.15, 80.31, 273.56)" xlink:href="#linear-gradient"/><linearGradient id="linear-gradient-116" x1="114.05" y1="-95.78" x2="117.42" y2="-93.24" gradientTransform="matrix(0.87, -0.5, 0, 1.15, 80.31, 273.56)" xlink:href="#linear-gradient"/><linearGradient id="linear-gradient-117" x1="101.45" y1="-92.36" x2="104.82" y2="-89.81" gradientTransform="matrix(0.87, -0.5, 0, 1.15, 80.31, 273.56)" xlink:href="#linear-gradient"/><linearGradient id="linear-gradient-118" x1="105.65" y1="-92.36" x2="109.02" y2="-89.81" gradientTransform="matrix(0.87, -0.5, 0, 1.15, 80.31, 273.56)" xlink:href="#linear-gradient"/><linearGradient id="linear-gradient-119" x1="109.85" y1="-92.36" x2="113.22" y2="-89.81" gradientTransform="matrix(0.87, -0.5, 0, 1.15, 80.31, 273.56)" xlink:href="#linear-gradient"/><linearGradient id="linear-gradient-120" x1="114.05" y1="-92.36" x2="117.42" y2="-89.81" gradientTransform="matrix(0.87, -0.5, 0, 1.15, 80.31, 273.56)" xlink:href="#linear-gradient"/><linearGradient id="linear-gradient-121" x1="151.45" y1="312.13" x2="158.16" y2="312.13" xlink:href="#linear-gradient-13"/><linearGradient id="linear-gradient-122" x1="112.18" y1="319.08" x2="140.35" y2="319.08" xlink:href="#linear-gradient-13"/><linearGradient id="linear-gradient-123" x1="85.77" y1="333.07" x2="166.76" y2="333.07" xlink:href="#linear-gradient-13"/><linearGradient id="linear-gradient-124" x1="85.81" y1="316.46" x2="166.76" y2="316.46" xlink:href="#linear-gradient-14"/><linearGradient id="linear-gradient-125" x1="184.68" y1="349.54" x2="188.39" y2="349.54" xlink:href="#linear-gradient-13"/><linearGradient id="linear-gradient-126" x1="162.94" y1="353.39" x2="178.53" y2="353.39" xlink:href="#linear-gradient-13"/><linearGradient id="linear-gradient-127" x1="148.32" y1="361.13" x2="193.15" y2="361.13" xlink:href="#linear-gradient-13"/><linearGradient id="linear-gradient-128" x1="148.34" y1="351.94" x2="193.15" y2="351.94" xlink:href="#linear-gradient-14"/><linearGradient id="linear-gradient-129" x1="92.59" y1="301.72" x2="113.09" y2="301.72" xlink:href="#linear-gradient-13"/><linearGradient id="linear-gradient-130" x1="77.75" y1="265.09" x2="145.83" y2="265.09" xlink:href="#linear-gradient-13"/><linearGradient id="linear-gradient-131" x1="291.33" y1="197.1" x2="369.2" y2="197.1" xlink:href="#linear-gradient-14"/><linearGradient id="linear-gradient-132" x1="291.37" y1="179.4" x2="369.2" y2="179.4" gradientTransform="translate(508.75 -151.39) rotate(89.84)" xlink:href="#linear-gradient-13"/><linearGradient id="linear-gradient-133" x1="162.92" y1="65.78" x2="208.68" y2="111.55" gradientTransform="matrix(1, -0.58, 0.87, 0.5, 58.07, 241.54)" xlink:href="#linear-gradient"/><linearGradient id="linear-gradient-134" x1="188.38" y1="403.4" x2="309.91" y2="403.4" xlink:href="#linear-gradient-13"/><linearGradient id="linear-gradient-135" x1="188.4" y1="388.24" x2="309.91" y2="388.24" xlink:href="#linear-gradient-14"/><linearGradient id="linear-gradient-136" x1="193.26" y1="387.83" x2="304.77" y2="387.83" xlink:href="#linear-gradient-13"/><linearGradient id="linear-gradient-137" x1="264.2" y1="39.79" x2="264.2" y2="198.08" xlink:href="#linear-gradient-13"/><linearGradient id="linear-gradient-138" x1="226.62" y1="39.79" x2="226.62" y2="198.08" xlink:href="#linear-gradient-13"/><linearGradient id="linear-gradient-139" x1="207.41" y1="111.73" x2="320.67" y2="224.99" xlink:href="#linear-gradient-14"/><linearGradient id="linear-gradient-140" x1="278.46" y1="55.29" x2="278.46" y2="188.86" xlink:href="#linear-gradient-13"/><linearGradient id="linear-gradient-141" x1="246.75" y1="55.29" x2="246.75" y2="188.86" xlink:href="#linear-gradient-13"/><linearGradient id="linear-gradient-142" x1="229.6" y1="130.31" x2="399.31" y2="201.72" xlink:href="#linear-gradient-14"/><linearGradient id="linear-gradient-143" x1="682.39" y1="182.4" x2="828.66" y2="182.4" gradientTransform="matrix(-0.87, 0.5, -0.5, 1.44, 1134.3, -404.02)" gradientUnits="userSpaceOnUse"><stop offset="0.04" stop-color="#e3ebff"/><stop offset="1" stop-color="#dce4f9"/></linearGradient><linearGradient id="linear-gradient-144" x1="620.33" y1="195.71" x2="693.71" y2="305.78" gradientTransform="matrix(-1, 0, 0, 1, 1015.25, 0)" xlink:href="#linear-gradient-13"/><linearGradient id="linear-gradient-145" x1="596.06" y1="144.83" x2="610.13" y2="158.9" gradientTransform="matrix(-0.87, 0.5, 0, 1.15, 950.75, -298.25)" xlink:href="#linear-gradient"/><linearGradient id="linear-gradient-146" x1="604.01" y1="144.83" x2="618.08" y2="158.9" gradientTransform="matrix(-0.87, 0.5, 0, 1.15, 950.75, -298.25)" xlink:href="#linear-gradient"/><linearGradient id="linear-gradient-147" x1="611.97" y1="144.83" x2="626.03" y2="158.9" gradientTransform="matrix(-0.87, 0.5, 0, 1.15, 950.75, -298.25)" xlink:href="#linear-gradient"/><linearGradient id="linear-gradient-148" x1="301.3" y1="350.05" x2="473.42" y2="350.05" xlink:href="#linear-gradient-14"/><linearGradient id="linear-gradient-149" x1="303.52" y1="320.1" x2="512.39" y2="412.6" xlink:href="#linear-gradient-14"/><linearGradient id="linear-gradient-150" x1="296.51" y1="343.42" x2="367.18" y2="343.42" xlink:href="#linear-gradient-13"/><linearGradient id="linear-gradient-151" x1="270.62" y1="212.87" x2="394.92" y2="330.35" xlink:href="#linear-gradient-14"/><linearGradient id="linear-gradient-152" x1="277.81" y1="219.67" x2="391.46" y2="327.07" xlink:href="#linear-gradient-13"/><linearGradient id="linear-gradient-153" x1="296.74" y1="251.93" x2="407.75" y2="251.93" xlink:href="#linear-gradient-14"/><linearGradient id="linear-gradient-154" x1="350.18" y1="312.11" x2="359.71" y2="321.12" gradientTransform="matrix(1, -0.58, 0.87, 0.5, -312.32, 408.69)" xlink:href="#linear-gradient-13"/><linearGradient id="linear-gradient-155" x1="356.41" y1="312.11" x2="365.94" y2="321.12" gradientTransform="matrix(1, -0.58, 0.87, 0.5, -312.32, 408.69)" xlink:href="#linear-gradient-13"/><linearGradient id="linear-gradient-156" x1="362.64" y1="312.11" x2="372.17" y2="321.12" gradientTransform="matrix(1, -0.58, 0.87, 0.5, -312.32, 408.69)" xlink:href="#linear-gradient-13"/><linearGradient id="linear-gradient-157" x1="368.87" y1="312.11" x2="378.4" y2="321.12" gradientTransform="matrix(1, -0.58, 0.87, 0.5, -312.32, 408.69)" xlink:href="#linear-gradient-13"/><linearGradient id="linear-gradient-158" x1="375.1" y1="312.11" x2="384.63" y2="321.12" gradientTransform="matrix(1, -0.58, 0.87, 0.5, -312.32, 408.69)" xlink:href="#linear-gradient-13"/><linearGradient id="linear-gradient-159" x1="381.33" y1="312.11" x2="390.86" y2="321.12" gradientTransform="matrix(1, -0.58, 0.87, 0.5, -312.32, 408.69)" xlink:href="#linear-gradient-13"/><linearGradient id="linear-gradient-160" x1="387.56" y1="312.11" x2="397.09" y2="321.12" gradientTransform="matrix(1, -0.58, 0.87, 0.5, -312.32, 408.69)" xlink:href="#linear-gradient-13"/><linearGradient id="linear-gradient-161" x1="393.79" y1="312.11" x2="403.32" y2="321.12" gradientTransform="matrix(1, -0.58, 0.87, 0.5, -312.32, 408.69)" xlink:href="#linear-gradient-13"/><linearGradient id="linear-gradient-162" x1="400.02" y1="312.11" x2="409.55" y2="321.12" gradientTransform="matrix(1, -0.58, 0.87, 0.5, -312.32, 408.69)" xlink:href="#linear-gradient-13"/><linearGradient id="linear-gradient-163" x1="406.25" y1="312.11" x2="415.78" y2="321.12" gradientTransform="matrix(1, -0.58, 0.87, 0.5, -312.32, 408.69)" xlink:href="#linear-gradient-13"/><linearGradient id="linear-gradient-164" x1="412.48" y1="312.11" x2="422.01" y2="321.12" gradientTransform="matrix(1, -0.58, 0.87, 0.5, -312.32, 408.69)" xlink:href="#linear-gradient-13"/><linearGradient id="linear-gradient-165" x1="418.71" y1="312.11" x2="428.24" y2="321.12" gradientTransform="matrix(1, -0.58, 0.87, 0.5, -312.32, 408.69)" xlink:href="#linear-gradient-13"/><linearGradient id="linear-gradient-166" x1="424.94" y1="312.11" x2="434.47" y2="321.12" gradientTransform="matrix(1, -0.58, 0.87, 0.5, -312.32, 408.69)" xlink:href="#linear-gradient-13"/><linearGradient id="linear-gradient-167" x1="431.17" y1="312.11" x2="440.7" y2="321.12" gradientTransform="matrix(1, -0.58, 0.87, 0.5, -312.32, 408.69)" xlink:href="#linear-gradient-13"/><linearGradient id="linear-gradient-168" x1="437.4" y1="312.11" x2="446.93" y2="321.12" gradientTransform="matrix(1, -0.58, 0.87, 0.5, -312.32, 408.69)" xlink:href="#linear-gradient-13"/><linearGradient id="linear-gradient-169" x1="356.41" y1="320.26" x2="365.94" y2="329.27" gradientTransform="matrix(1, -0.58, 0.87, 0.5, -312.32, 408.69)" xlink:href="#linear-gradient-13"/><linearGradient id="linear-gradient-170" x1="362.64" y1="320.26" x2="372.17" y2="329.27" gradientTransform="matrix(1, -0.58, 0.87, 0.5, -312.32, 408.69)" xlink:href="#linear-gradient-13"/><linearGradient id="linear-gradient-171" x1="368.87" y1="320.26" x2="378.4" y2="329.27" gradientTransform="matrix(1, -0.58, 0.87, 0.5, -312.32, 408.69)" xlink:href="#linear-gradient-13"/><linearGradient id="linear-gradient-172" x1="375.1" y1="320.26" x2="384.63" y2="329.27" gradientTransform="matrix(1, -0.58, 0.87, 0.5, -312.32, 408.69)" xlink:href="#linear-gradient-13"/><linearGradient id="linear-gradient-173" x1="381.33" y1="320.26" x2="390.86" y2="329.27" gradientTransform="matrix(1, -0.58, 0.87, 0.5, -312.32, 408.69)" xlink:href="#linear-gradient-13"/><linearGradient id="linear-gradient-174" x1="387.56" y1="320.26" x2="397.09" y2="329.27" gradientTransform="matrix(1, -0.58, 0.87, 0.5, -312.32, 408.69)" xlink:href="#linear-gradient-13"/><linearGradient id="linear-gradient-175" x1="393.79" y1="320.26" x2="403.32" y2="329.27" gradientTransform="matrix(1, -0.58, 0.87, 0.5, -312.32, 408.69)" xlink:href="#linear-gradient-13"/><linearGradient id="linear-gradient-176" x1="400.02" y1="320.26" x2="409.55" y2="329.27" gradientTransform="matrix(1, -0.58, 0.87, 0.5, -312.32, 408.69)" xlink:href="#linear-gradient-13"/><linearGradient id="linear-gradient-177" x1="406.25" y1="320.26" x2="415.78" y2="329.27" gradientTransform="matrix(1, -0.58, 0.87, 0.5, -312.32, 408.69)" xlink:href="#linear-gradient-13"/><linearGradient id="linear-gradient-178" x1="412.48" y1="320.26" x2="422.01" y2="329.27" gradientTransform="matrix(1, -0.58, 0.87, 0.5, -312.32, 408.69)" xlink:href="#linear-gradient-13"/><linearGradient id="linear-gradient-179" x1="418.71" y1="320.26" x2="428.24" y2="329.27" gradientTransform="matrix(1, -0.58, 0.87, 0.5, -312.32, 408.69)" xlink:href="#linear-gradient-13"/><linearGradient id="linear-gradient-180" x1="424.94" y1="320.26" x2="434.47" y2="329.27" gradientTransform="matrix(1, -0.58, 0.87, 0.5, -312.32, 408.69)" xlink:href="#linear-gradient-13"/><linearGradient id="linear-gradient-181" x1="431.17" y1="320.26" x2="440.7" y2="329.27" gradientTransform="matrix(1, -0.58, 0.87, 0.5, -312.32, 408.69)" xlink:href="#linear-gradient-13"/><linearGradient id="linear-gradient-182" x1="437.4" y1="320.26" x2="446.93" y2="329.27" gradientTransform="matrix(1, -0.58, 0.87, 0.5, -312.32, 408.69)" xlink:href="#linear-gradient-13"/><linearGradient id="linear-gradient-183" x1="342.17" y1="316.77" x2="366" y2="339.29" gradientTransform="matrix(1, -0.58, 0.87, 0.5, -312.32, 408.69)" xlink:href="#linear-gradient-13"/><linearGradient id="linear-gradient-184" x1="362.64" y1="328.41" x2="372.17" y2="337.42" gradientTransform="matrix(1, -0.58, 0.87, 0.5, -312.32, 408.69)" xlink:href="#linear-gradient-13"/><linearGradient id="linear-gradient-185" x1="368.87" y1="328.41" x2="378.4" y2="337.42" gradientTransform="matrix(1, -0.58, 0.87, 0.5, -312.32, 408.69)" xlink:href="#linear-gradient-13"/><linearGradient id="linear-gradient-186" x1="375.1" y1="328.41" x2="384.63" y2="337.42" gradientTransform="matrix(1, -0.58, 0.87, 0.5, -312.32, 408.69)" xlink:href="#linear-gradient-13"/><linearGradient id="linear-gradient-187" x1="381.33" y1="328.41" x2="390.86" y2="337.42" gradientTransform="matrix(1, -0.58, 0.87, 0.5, -312.32, 408.69)" xlink:href="#linear-gradient-13"/><linearGradient id="linear-gradient-188" x1="387.56" y1="328.41" x2="397.09" y2="337.42" gradientTransform="matrix(1, -0.58, 0.87, 0.5, -312.32, 408.69)" xlink:href="#linear-gradient-13"/><linearGradient id="linear-gradient-189" x1="393.79" y1="328.41" x2="403.32" y2="337.42" gradientTransform="matrix(1, -0.58, 0.87, 0.5, -312.32, 408.69)" xlink:href="#linear-gradient-13"/><linearGradient id="linear-gradient-190" x1="400.02" y1="328.41" x2="409.55" y2="337.42" gradientTransform="matrix(1, -0.58, 0.87, 0.5, -312.32, 408.69)" xlink:href="#linear-gradient-13"/><linearGradient id="linear-gradient-191" x1="406.25" y1="328.41" x2="415.78" y2="337.42" gradientTransform="matrix(1, -0.58, 0.87, 0.5, -312.32, 408.69)" xlink:href="#linear-gradient-13"/><linearGradient id="linear-gradient-192" x1="412.48" y1="328.41" x2="422.01" y2="337.42" gradientTransform="matrix(1, -0.58, 0.87, 0.5, -312.32, 408.69)" xlink:href="#linear-gradient-13"/><linearGradient id="linear-gradient-193" x1="418.71" y1="328.41" x2="428.24" y2="337.42" gradientTransform="matrix(1, -0.58, 0.87, 0.5, -312.32, 408.69)" xlink:href="#linear-gradient-13"/><linearGradient id="linear-gradient-194" x1="424.94" y1="328.41" x2="434.47" y2="337.42" gradientTransform="matrix(1, -0.58, 0.87, 0.5, -312.32, 408.69)" xlink:href="#linear-gradient-13"/><linearGradient id="linear-gradient-195" x1="431.17" y1="328.41" x2="440.7" y2="337.42" gradientTransform="matrix(1, -0.58, 0.87, 0.5, -312.32, 408.69)" xlink:href="#linear-gradient-13"/><linearGradient id="linear-gradient-196" x1="437.4" y1="328.41" x2="446.93" y2="337.42" gradientTransform="matrix(1, -0.58, 0.87, 0.5, -312.32, 408.69)" xlink:href="#linear-gradient-13"/><linearGradient id="linear-gradient-197" x1="350.18" y1="336.56" x2="359.71" y2="345.57" gradientTransform="matrix(1, -0.58, 0.87, 0.5, -312.32, 408.69)" xlink:href="#linear-gradient-13"/><linearGradient id="linear-gradient-198" x1="356.41" y1="336.56" x2="365.94" y2="345.57" gradientTransform="matrix(1, -0.58, 0.87, 0.5, -312.32, 408.69)" xlink:href="#linear-gradient-13"/><linearGradient id="linear-gradient-199" x1="362.64" y1="336.56" x2="372.17" y2="345.57" gradientTransform="matrix(1, -0.58, 0.87, 0.5, -312.32, 408.69)" xlink:href="#linear-gradient-13"/><linearGradient id="linear-gradient-200" x1="368.87" y1="336.56" x2="378.4" y2="345.57" gradientTransform="matrix(1, -0.58, 0.87, 0.5, -312.32, 408.69)" xlink:href="#linear-gradient-13"/><linearGradient id="linear-gradient-201" x1="375.1" y1="336.56" x2="384.63" y2="345.57" gradientTransform="matrix(1, -0.58, 0.87, 0.5, -312.32, 408.69)" xlink:href="#linear-gradient-13"/><linearGradient id="linear-gradient-202" x1="381.33" y1="336.56" x2="390.86" y2="345.57" gradientTransform="matrix(1, -0.58, 0.87, 0.5, -312.32, 408.69)" xlink:href="#linear-gradient-13"/><linearGradient id="linear-gradient-203" x1="387.56" y1="336.56" x2="397.09" y2="345.57" gradientTransform="matrix(1, -0.58, 0.87, 0.5, -312.32, 408.69)" xlink:href="#linear-gradient-13"/><linearGradient id="linear-gradient-204" x1="393.79" y1="336.56" x2="403.32" y2="345.57" gradientTransform="matrix(1, -0.58, 0.87, 0.5, -312.32, 408.69)" xlink:href="#linear-gradient-13"/><linearGradient id="linear-gradient-205" x1="400.02" y1="336.56" x2="409.55" y2="345.57" gradientTransform="matrix(1, -0.58, 0.87, 0.5, -312.32, 408.69)" xlink:href="#linear-gradient-13"/><linearGradient id="linear-gradient-206" x1="406.25" y1="336.56" x2="415.78" y2="345.57" gradientTransform="matrix(1, -0.58, 0.87, 0.5, -312.32, 408.69)" xlink:href="#linear-gradient-13"/><linearGradient id="linear-gradient-207" x1="412.48" y1="336.56" x2="422.01" y2="345.57" gradientTransform="matrix(1, -0.58, 0.87, 0.5, -312.32, 408.69)" xlink:href="#linear-gradient-13"/><linearGradient id="linear-gradient-208" x1="418.71" y1="336.56" x2="428.24" y2="345.57" gradientTransform="matrix(1, -0.58, 0.87, 0.5, -312.32, 408.69)" xlink:href="#linear-gradient-13"/><linearGradient id="linear-gradient-209" x1="424.94" y1="336.56" x2="434.47" y2="345.57" gradientTransform="matrix(1, -0.58, 0.87, 0.5, -312.32, 408.69)" xlink:href="#linear-gradient-13"/><linearGradient id="linear-gradient-210" x1="431.17" y1="336.56" x2="440.7" y2="345.57" gradientTransform="matrix(1, -0.58, 0.87, 0.5, -312.32, 408.69)" xlink:href="#linear-gradient-13"/><linearGradient id="linear-gradient-211" x1="437.4" y1="336.56" x2="446.93" y2="345.57" gradientTransform="matrix(1, -0.58, 0.87, 0.5, -312.32, 408.69)" xlink:href="#linear-gradient-13"/><linearGradient id="linear-gradient-212" x1="350.18" y1="344.71" x2="359.71" y2="353.72" gradientTransform="matrix(1, -0.58, 0.87, 0.5, -312.32, 408.69)" xlink:href="#linear-gradient-13"/><linearGradient id="linear-gradient-213" x1="356.41" y1="344.71" x2="365.94" y2="353.72" gradientTransform="matrix(1, -0.58, 0.87, 0.5, -312.32, 408.69)" xlink:href="#linear-gradient-13"/><linearGradient id="linear-gradient-214" x1="362.64" y1="344.71" x2="372.17" y2="353.72" gradientTransform="matrix(1, -0.58, 0.87, 0.5, -312.32, 408.69)" xlink:href="#linear-gradient-13"/><linearGradient id="linear-gradient-215" x1="368.87" y1="344.71" x2="378.4" y2="353.72" gradientTransform="matrix(1, -0.58, 0.87, 0.5, -312.32, 408.69)" xlink:href="#linear-gradient-13"/><linearGradient id="linear-gradient-216" x1="367.89" y1="320.24" x2="415.79" y2="365.5" gradientTransform="matrix(1, -0.58, 0.87, 0.5, -312.32, 408.69)" xlink:href="#linear-gradient-13"/><linearGradient id="linear-gradient-217" x1="418.71" y1="344.71" x2="428.24" y2="353.72" gradientTransform="matrix(1, -0.58, 0.87, 0.5, -312.32, 408.69)" xlink:href="#linear-gradient-13"/><linearGradient id="linear-gradient-218" x1="424.94" y1="344.71" x2="434.47" y2="353.72" gradientTransform="matrix(1, -0.58, 0.87, 0.5, -312.32, 408.69)" xlink:href="#linear-gradient-13"/><linearGradient id="linear-gradient-219" x1="431.17" y1="344.71" x2="440.7" y2="353.72" gradientTransform="matrix(1, -0.58, 0.87, 0.5, -312.32, 408.69)" xlink:href="#linear-gradient-13"/><linearGradient id="linear-gradient-220" x1="437.4" y1="344.71" x2="446.93" y2="353.72" gradientTransform="matrix(1, -0.58, 0.87, 0.5, -312.32, 408.69)" xlink:href="#linear-gradient-13"/><linearGradient id="linear-gradient-221" x1="238.64" y1="374.59" x2="261.97" y2="374.59" xlink:href="#linear-gradient-14"/><linearGradient id="linear-gradient-222" x1="238.64" y1="370.96" x2="269.52" y2="370.96" xlink:href="#linear-gradient-13"/><linearGradient id="linear-gradient-223" x1="226.77" y1="360.36" x2="273.91" y2="360.36" xlink:href="#linear-gradient-14"/><linearGradient id="linear-gradient-224" x1="226.77" y1="356.73" x2="281.47" y2="356.73" xlink:href="#linear-gradient-13"/><linearGradient id="linear-gradient-225" x1="214.91" y1="346.13" x2="285.86" y2="346.13" xlink:href="#linear-gradient-14"/><linearGradient id="linear-gradient-226" x1="214.91" y1="342.5" x2="293.41" y2="342.5" xlink:href="#linear-gradient-13"/><linearGradient id="linear-gradient-227" x1="231.98" y1="342.36" x2="243.17" y2="391.66" gradientTransform="matrix(-1, 0, 0, 1, 493.81, 0)" xlink:href="#linear-gradient"/><linearGradient id="linear-gradient-228" x1="229.47" y1="374.4" x2="273.8" y2="421.63" gradientTransform="matrix(-1, 0, 0, 1, 493.81, 0)" xlink:href="#linear-gradient"/><linearGradient id="linear-gradient-229" x1="96.45" y1="376.48" x2="135.41" y2="319.49" xlink:href="#linear-gradient-13"/><linearGradient id="linear-gradient-230" x1="149.53" y1="368.4" x2="129.73" y2="395.63" xlink:href="#linear-gradient-14"/><linearGradient id="linear-gradient-231" x1="164.57" y1="399.07" x2="173.97" y2="399.07" xlink:href="#linear-gradient-13"/><linearGradient id="linear-gradient-232" x1="102.64" y1="352.59" x2="99.97" y2="364.92" xlink:href="#linear-gradient"/><linearGradient id="linear-gradient-233" x1="108.99" y1="361.53" x2="197.39" y2="421.56" gradientUnits="userSpaceOnUse"><stop offset="0" stop-color="#e3ebff"/><stop offset="1" stop-color="#978ef0"/></linearGradient><linearGradient id="linear-gradient-234" x1="32.66" y1="427.06" x2="160.73" y2="427.06" xlink:href="#linear-gradient-14"/><linearGradient id="linear-gradient-235" x1="108.17" y1="446.58" x2="35.93" y2="206.73" xlink:href="#linear-gradient-13"/><linearGradient id="linear-gradient-236" x1="81.95" y1="409.85" x2="66.48" y2="358.51" gradientTransform="matrix(1, -0.58, 0.87, 0.5, -352.17, 241.67)" xlink:href="#linear-gradient"/><linearGradient id="linear-gradient-237" x1="81.95" y1="418.42" x2="66.48" y2="367.08" gradientTransform="matrix(1, -0.58, 0.87, 0.5, -352.17, 241.67)" xlink:href="#linear-gradient"/><linearGradient id="linear-gradient-238" x1="81.95" y1="426.98" x2="66.48" y2="375.64" gradientTransform="matrix(1, -0.58, 0.87, 0.5, -352.17, 241.67)" xlink:href="#linear-gradient"/><linearGradient id="linear-gradient-239" x1="81.95" y1="435.55" x2="66.48" y2="384.21" gradientTransform="matrix(1, -0.58, 0.87, 0.5, -352.17, 241.67)" xlink:href="#linear-gradient"/><linearGradient id="linear-gradient-240" x1="81.95" y1="444.11" x2="66.48" y2="392.78" gradientTransform="matrix(1, -0.58, 0.87, 0.5, -352.17, 241.67)" xlink:href="#linear-gradient"/><linearGradient id="linear-gradient-241" x1="81.95" y1="452.68" x2="66.49" y2="401.34" gradientTransform="matrix(1, -0.58, 0.87, 0.5, -352.17, 241.67)" xlink:href="#linear-gradient"/><linearGradient id="linear-gradient-242" x1="81.95" y1="461.24" x2="66.49" y2="409.91" gradientTransform="matrix(1, -0.58, 0.87, 0.5, -352.17, 241.67)" xlink:href="#linear-gradient"/></defs><rect id="ee-background" x="0" y="0" width="1400" height="980" style="fill: white; fill-opacity: 0; pointer-events: none;"/>














<g transform="matrix(15.3125, 0, 0, 15.3125, 210.0000335422974, 0.000004627392172551481)"><pattern id="a" width="23.936" height="23.881" y="-420" overflow="visible" patternUnits="userSpaceOnUse" viewBox="0 -23.881 23.936 23.881"><path d="M 0 0 L 23.93600082397461 0 L 23.93600082397461 -23.881000518798828 L 0 -23.881000518798828 Z" fill="none"/><path d="M 23.93600082397461 0 L 0 0 L 0 -23.881000518798828 L 23.93600082397461 -23.881000518798828 Z" fill="#78BFE8"/></pattern><pattern id="b" width="23.936" height="23.881" y="-420" overflow="visible" patternUnits="userSpaceOnUse" viewBox="0 -23.881 23.936 23.881"><path d="M 0 0 L 23.93600082397461 0 L 23.93600082397461 -23.881000518798828 L 0 -23.881000518798828 Z" fill="none"/><path d="M 23.93600082397461 0 L 0 0 L 0 -23.881000518798828 L 23.93600082397461 -23.881000518798828 Z" fill="#75BBA7"/></pattern><pattern id="c" width="23.936" height="23.881" y="-420" overflow="visible" patternUnits="userSpaceOnUse" viewBox="0 -23.881 23.936 23.881"><path d="M 0 0 L 23.93600082397461 0 L 23.93600082397461 -23.881000518798828 L 0 -23.881000518798828 Z" fill="none"/><path d="M 23.93600082397461 0 L 0 0 L 0 -23.881000518798828 L 23.93600082397461 -23.881000518798828 Z" fill="#EF6183"/></pattern><path fill="url(#a)" d="M63.563,60.924c0.003-0.033,0.021-0.061,0.021-0.094c0-0.27-0.12-0.54-0.32-0.73&#10;&#9;&#9;l-0.08-0.08c-0.007-0.004-0.014-0.006-0.021-0.01l-2.233-2.075c-0.403-0.375-1.037-0.353-1.413,0.052&#10;&#9;&#9;c-0.376,0.404-0.353,1.037,0.052,1.413l0.463,0.431h-3.048v-18.35c0-0.56-0.45-1-1-1h-4.42c-0.56,0-1,0.44-1,1v18.35h-3.65v-14.66&#10;&#9;&#9;c0-0.56-0.45-1-1-1h-4.42c-0.56,0-1,0.44-1,1v14.66h-3.65v-9.13c0-0.55-0.45-1-1-1h-4.43c-0.55,0-1,0.45-1,1v9.13h-3.64v-12.82&#10;&#9;&#9;c0-0.55-0.45-1-1-1h-4.43c-0.55,0-1,0.45-1,1v12.82h-3.65v-5.44c0-0.55-0.44-1-1-1h-4.42c-0.55,0-1,0.45-1,1v5.44h-5.69V5.313&#10;&#9;&#9;l0.433,0.466C5.395,6.184,6.027,6.207,6.431,5.83c0.404-0.376,0.427-1.009,0.051-1.413L4.314,2.085&#10;&#9;&#9;C4.305,2.074,4.29,2.071,4.279,2.061C4.24,2.025,4.201,1.99,4.154,1.959c-0.03-0.03-0.07-0.05-0.11-0.07&#10;&#9;&#9;c-0.01-0.01-0.02-0.01-0.03-0.01c-0.001-0.001-0.002,0-0.004-0.001C3.977,1.862,3.942,1.854,3.906,1.842&#10;&#9;&#9;C3.888,1.837,3.867,1.829,3.854,1.829c-0.05-0.01-0.08-0.02-0.13-0.03c-0.01,0-0.02,0-0.03-0.01c-0.04-0.01-0.07-0.02-0.11-0.02&#10;&#9;&#9;c-0.01,0-0.03,0-0.05,0.01c-0.108,0.006-0.21,0.032-0.309,0.069c-0.039,0.014-0.072,0.036-0.11,0.055&#10;&#9;&#9;C3.079,1.923,3.039,1.935,3.004,1.959C2.968,1.988,2.931,2.021,2.895,2.054C2.882,2.067,2.862,2.071,2.85,2.085L0.683,4.417&#10;&#9;&#9;C0.307,4.821,0.33,5.454,0.735,5.83c0.192,0.179,0.437,0.268,0.681,0.268c0.268,0,0.536-0.107,0.732-0.319l0.437-0.47v55.521&#10;&#9;&#9;c0,0.55,0.45,1,1,1h7.59c0.03,0.01,0.07,0.01,0.1,0.01s0.07,0,0.1-0.01h4.22c0.03,0.01,0.07,0.01,0.1,0.01c0.04,0,0.07,0,0.1-0.01&#10;&#9;&#9;h5.45c0.03,0.01,0.07,0.01,0.1,0.01c0.03,0,0.07,0,0.1-0.01h4.23c0.03,0.01,0.06,0.01,0.1,0.01c0.03,0,0.07,0,0.1-0.01h5.44&#10;&#9;&#9;c0.03,0.01,0.07,0.01,0.1,0.01c0.04,0,0.07,0,0.1-0.01h4.23c0.03,0.01,0.07,0.01,0.1,0.01s0.07,0,0.1-0.01h5.45&#10;&#9;&#9;c0.03,0.01,0.06,0.01,0.1,0.01c0.03,0,0.07,0,0.1-0.01h4.22c0.03,0.01,0.06,0.01,0.1,0.01c0.03,0,0.07,0,0.1-0.01h5.45&#10;&#9;&#9;c0.03,0.01,0.07,0.01,0.1,0.01c0.03,0,0.07,0,0.1-0.01h4.22c0.03,0.01,0.07,0.01,0.1,0.01s0.07,0,0.1-0.01h3.957l-0.472,0.439&#10;&#9;&#9;c-0.405,0.376-0.428,1.009-0.052,1.413c0.197,0.212,0.464,0.319,0.732,0.319c0.244,0,0.488-0.088,0.681-0.268l2.319-2.155&#10;&#9;&#9;c0.004-0.004,0.011-0.005,0.015-0.009c0.05-0.05,0.09-0.1,0.13-0.16c0.03-0.037,0.053-0.086,0.074-0.134&#10;&#9;&#9;C63.524,61.166,63.552,61.047,63.563,60.924z" style="fill: rgb(246, 124, 29);"/><path fill="url(#b)" d="M13.834,42.369c1.74,0,3.16-1.42,3.16-3.16c0-0.72-0.24-1.38-0.65-1.91l5.7-6.85&#10;&#9;&#9;c0.45,0.25,0.96,0.39,1.51,0.39c0.76,0,1.46-0.26,2-0.71l4.99,5.29c-0.05,0.23-0.08,0.47-0.08,0.72c0,1.75,1.42,3.17,3.17,3.17&#10;&#9;&#9;c1.74,0,3.16-1.42,3.16-3.17c0-0.43-0.09-0.84-0.24-1.22l5.61-7.46c0.46,0.26,0.98,0.41,1.54,0.41c0.629,0,1.218-0.19,1.708-0.509&#10;&#9;&#9;l5.65,4.993c-0.299,0.479-0.458,1.028-0.458,1.626c0,1.75,1.42,3.16,3.17,3.16c1.74,0,3.16-1.41,3.16-3.16&#10;&#9;&#9;c0-1.74-1.42-3.16-3.16-3.16c-0.419,0-0.798,0.08-1.167,0.229l-5.942-5.25c0.13-0.34,0.2-0.709,0.2-1.089&#10;&#9;&#9;c0-1.75-1.42-3.17-3.16-3.17c-1.75,0-3.17,1.42-3.17,3.17c0,0.44,0.09,0.86,0.26,1.24l-5.6,7.45c-0.46-0.27-0.99-0.42-1.56-0.42&#10;&#9;&#9;c-0.75,0-1.44,0.26-1.98,0.69l-5.01-5.28c0.05-0.23,0.08-0.47,0.08-0.71c0-1.75-1.42-3.17-3.17-3.17c-1.74,0-3.16,1.42-3.16,3.17&#10;&#9;&#9;c0,0.46,0.1,0.89,0.28,1.28l-5.98,7.21c-0.27-0.08-0.56-0.12-0.86-0.12c-1.75,0-3.17,1.41-3.17,3.16&#10;&#9;&#9;C10.664,40.949,12.084,42.369,13.834,42.369z" style="fill: rgb(246, 124, 29);"/></g></svg>