<?xml version="1.0" encoding="utf-8"?>
<svg id="master-artboard" viewBox="0 0 1400 980" version="1.1" xmlns="http://www.w3.org/2000/svg" x="0px" y="0px" style="enable-background:new 0 0 336 235.2;" width="1400px" height="980px"><rect id="ee-background" x="0" y="0" width="1400" height="980" style="fill: white; fill-opacity: 0; pointer-events: none;"/>














<g transform="matrix(15.312500953674316, 0, 0, 15.312500953674316, 209.9999738225515, 0.0000030364515168912476)"><path d="M58,5H6a6,6,0,0,0-6,6V53a6,6,0,0,0,6,6H58a6,6,0,0,0,6-6V11A6,6,0,0,0,58,5Zm-4,6h4v4H54Zm-6,0h4v4H48Zm-6,0h4v4H42ZM60,53a2,2,0,0,1-2,2H6a2,2,0,0,1-2-2V21H60Z" style="fill: rgb(202, 116, 116);"/><path d="M22.74 25.47l-11.2 11.2A2 2 0 0 0 11 38.08a2 2 0 0 0 .58 1.42l11.2 11.19 2.83-2.82-9.79-9.79 9.79-9.78zM41.26 25.47L38.43 28.3l9.79 9.78-9.79 9.79 2.83 2.82L52.46 39.5A2 2 0 0 0 53 38.08a2 2 0 0 0-.58-1.41z" style="fill: rgb(202, 116, 116);"/><path d="M 19.25 36.5 H 44.75 V 40.5 H 19.25 V 36.5 Z" transform="rotate(-78.69 32 38.502)" style="fill: rgb(202, 116, 116);"/></g></svg>